<svg viewBox="0 0 1000 1000" xmlns="http://www.w3.org/2000/svg"><path d="m121.85 193.94h158.3l-10.67-21.79h-17.34l-5.34-24.9h-40.02l-19.56 32.02h-54.7z" fill="#cae3ff"/><path d="m94.5 193.94h209" fill="none" stroke="#231f20" stroke-miterlimit="10"/><path d="m237.33 361.75h65.86l-8.11-16.7h-20.05l-4.77-14.8h-22.91z" fill="#cae3ff"/><path d="m228.5 361.75h94.5" fill="none" stroke="#231f20" stroke-miterlimit="10"/><path d="m523.33 124.75h65.86l-8.11-16.7h-20.05l-4.77-14.8h-22.91z" fill="#cae3ff"/><path d="m514.5 124.75h94.5" fill="none" stroke="#231f20" stroke-miterlimit="10"/><path d="m139.22 748.58h199.48v158.17h-199.48z" fill="#a0cff9"/><path d="m338.7 748.58v158.17h-199.48" fill="none" stroke="#231f20" stroke-miterlimit="10"/><path d="m42.5 748.58h199.48v158.17h-199.48z" fill="#cae3ff"/><path d="m241.98 779.81v126.94h-199.48" fill="none" stroke="#231f20" stroke-miterlimit="10"/><path d="m400.84 636.24h94.01v73.04h-94.01z" fill="#a0cff9"/><path d="m494.85 636.25v73.04h-94.01" fill="none" stroke="#231f20" stroke-miterlimit="10"/><path d="m361.36 636.24h91.18v73.04h-91.18z" fill="#cae3ff"/><path d="m452.54 636.25v73.04h-91.18" fill="none" stroke="#231f20" stroke-miterlimit="10"/><path d="m449.25 562.7h127.72v73.04h-127.72z" fill="#a0cff9"/><path d="m576.96 562.7v73.04h-127.71" fill="none" stroke="#231f20" stroke-miterlimit="10"/><path d="m395.62 562.7h123.86v73.04h-123.86z" fill="#cae3ff"/><path d="m519.48 562.7v73.04h-123.86" fill="none" stroke="#231f20" stroke-miterlimit="10"/><path d="m497.88 708.41v-.13h-2.59c-2-.09-3.94-.15-5.93-.15h-.55v.14h-118.88v198.48h279.57c-.29-106.2-67.32-192.84-151.62-198.34z" fill="#a0cff9" stroke="#231f20" stroke-miterlimit="10"/><path d="m561.85 906.75c-.37-109.75-89.45-198.62-199.3-198.62h-.68v198.62z" fill="#cae3ff"/><path d="m542.4 821.45a199.31 199.31 0 0 0 -179.85-113.32h-.68" fill="none" stroke="#231f20" stroke-miterlimit="10"/><path d="m361.87 906.75h199.98" fill="none" stroke="#231f20" stroke-miterlimit="10"/><path d="m264.14 543.73a103.28 103.28 0 0 1 -85.25 180.48 103.27 103.27 0 1 0 85.25-180.48z" fill="#a0cff9"/><path d="m296.77 651.06a103.29 103.29 0 0 0 -32.63-107.33 103.27 103.27 0 0 0 -85.25 180.48 103.27 103.27 0 0 0 117.88-73.15z" fill="#cae3ff"/><path d="m178.89 724.21a103.26 103.26 0 0 0 145.62-145.4" fill="none" stroke="#231f20" stroke-miterlimit="10"/><path d="m524.31 415.91a79.35 79.35 0 0 1 -111.56 105.23 79.34 79.34 0 1 0 111.56-105.23z" fill="#a0cff9"/><path d="m517.57 501.84a79.35 79.35 0 0 0 6.74-85.93 79.41 79.41 0 0 0 -115.67 38.51 79.15 79.15 0 0 0 4.11 66.72 79.35 79.35 0 0 0 104.82-19.3z" fill="#cae3ff"/><path d="m412.75 521.14a79.33 79.33 0 0 0 144.91-63.21" fill="none" stroke="#231f20" stroke-miterlimit="10"/><path d="m476.95 275.57-64.55 127.69v.26h90.61l-25.69-127.21z" fill="#cae3ff"/><path d="m541.5 403.26-64.18-126.95 20.05 127.21h44.13z" fill="#a0cff9"/><path d="m476.95 275.57 64.55 127.69v.26h-129.1v-.26" fill="none" stroke="#231f20" stroke-miterlimit="10"/><path d="m789.01 578.48 15.06-49.59h70.84l-62.88 46.05z" fill="#1e0b04" stroke="#000" stroke-miterlimit="10"/><path d="m565.85 333.19 10.63-149.66h-39.85l-5.31 22.14h22.14l-28.34 174.45h49.59l18.1-16.26-21.3-40.73z" fill="#fc9c86"/><path d="m531.32 205.67h22.14" fill="none" stroke="#000" stroke-miterlimit="10"/><path d="m777.89 570.21h74.88l-68.19 201.32h-21.84z" fill="#4870c1"/><g fill="none" stroke="#000" stroke-miterlimit="10"><path d="m784.58 771.53h-21.84l15.15-201.32h74.88"/><path d="m564.97 346.47 11.51-162.94h-39.85"/><path d="m525.12 380.12h49.59l18.1-16.26-21.3-40.73"/></g><path d="m613.67 248.18-42.16 74.95 21.3 40.73 43-38.64z" fill="#f96479"/><g stroke="#000" stroke-miterlimit="10"><path d="m571.51 323.13 21.3 40.73 43-38.64-22.14-77.04" fill="none"/><path d="m784.58 771.53h-109.8l54.9-319.68h44.28l7 210.75" fill="#4870c1"/><path d="m681.86 834.41-17.71 70.84h-95.64l81.47-46.93z" fill="#1e0b04"/></g><path d="m773.96 451.85-100.07 415.32h-130.17l101.83-425.06 79.7-9.74z" fill="#6597e0"/><path d="m725.25 432.37 48.71 19.48-100.07 415.32h-130.17" fill="none" stroke="#000" stroke-miterlimit="10"/><path d="m774 451.85-49.63-203.67h-110.7l4.57 45.69a23.47 23.47 0 0 0 4.25 42.49l11.51 115.49z" fill="#f96479"/><g stroke="#000" stroke-miterlimit="10"><path d="m634.04 451.85h139.92l-49.59-203.67h-110.7" fill="none"/><path d="m618.24 293.87a23.47 23.47 0 0 0 4.25 42.49" fill="none"/><path d="m633.16 170.25s8.85 42.5-19.49 77.93h49.59l-4.42-67.31z"/></g><path d="m680.97 248.18-25.68 30.99v-56.68h25.68z" fill="#fc9c86"/><path d="m680.97 222.49v25.69l-25.68 30.99" fill="none" stroke="#000" stroke-miterlimit="10"/><path d="m641.12 172h39.88a0 0 0 0 1 0 0v62.87a0 0 0 0 1 0 0h-10.71a29.17 29.17 0 0 1 -29.17-29.17v-33.7a0 0 0 0 1 0 0z" fill="#fc9c86"/><path d="m641.13 172.02h39.84v62.87" fill="none" stroke="#000" stroke-miterlimit="10"/><path d="m667 234.89a25.71 25.71 0 0 1 -12.11-3" fill="none" stroke="#000" stroke-miterlimit="10"/><path d="m664.15 187.07-5.31-36.3s57.11-3.1 61.54 97.85l-46.49-.44s3.54-52.25-9.74-61.11z" fill="#ffcd50"/><ellipse cx="659.28" cy="172.9" fill="#ffcd50" rx="27.89" ry="22.14"/><path d="m687.17 172.9c0 12.23-12.49 22.14-27.89 22.14a32.38 32.38 0 0 1 -18.16-5.33" fill="none" stroke="#000" stroke-miterlimit="10"/><path d="m658.84 150.77s56.67-3.55 61.1 97.41h-46.05" fill="none" stroke="#000" stroke-miterlimit="10"/><path d="m511.25 249.84-75.37-.23 6.31-43.83 75.38.23z" fill="#f9914b"/><path d="m547.25 249.84-75.37-.23 6.31-43.83 75.38.23z" fill="#ffcd50"/><g fill="none" stroke="#000" stroke-miterlimit="10"><path d="m547.25 249.83-75.37-.22"/><path d="m478.19 205.78 75.38.23"/><path d="m693.81 248.36-34.97 42.32"/></g><circle cx="658.39" cy="471.78" fill="#a4eade" r="39.41"/><path d="m658.39 432.37a39.41 39.41 0 1 1 0 78.81" fill="none" stroke="#000" stroke-miterlimit="10"/><path d="m638.38 336.1a23.48 23.48 0 0 1 -31.79-22" fill="none" stroke="#000" stroke-miterlimit="10"/><path d="m815.58 387.21-22.85-34.83-39.14 14.46-.92-.13-122.17 49.75 3.54 35.39h28.55l-3.75-18.6z" fill="#fc9c86"/><g stroke-miterlimit="10"><g stroke="#000"><path d="m634.04 451.85h28.55l-3.75-18.6 156.74-46.04-22.85-34.83" fill="none"/><path d="m724.37 248.18 68.36 104.2-39.55 14.12-58.92-79.36" fill="#f96479"/><g fill="none"><path d="m550.74 837.83h131.12"/><path d="m694.26 511.18s-5.32 23 14.17 22.14"/></g></g><g stroke="#1e0b04"><g fill="#1e0b04"><ellipse cx="659.28" cy="203.97" rx="1.33" ry="1.38"/><ellipse cx="645.11" cy="203.97" rx="1.33" ry="1.38"/><path d="m652.64 432.37 2.65 19.48"/><path d="m646.44 432.37 1.85 19.48"/><path d="m638.47 432.37 1.85 19.48"/><path d="m533.23 198.59h14.91"/><path d="m535 191.5h14.91"/></g><path d="m651.31 201.03-3.7 17.04h5.47" fill="none"/></g></g><path d="m655.26 222.72a3.68 3.68 0 1 0 7.25-1s0-.09 0-.14l-7.24 1a.71.71 0 0 1 -.01.14z"/><path d="m808.08 830.78h71.25v74.47h-71.25z" fill="#a0cff9" stroke="#231f20" stroke-miterlimit="10"/><path d="m773.54 830.78h71.25v74.47h-71.25z" fill="#cae3ff" stroke="#231f20" stroke-miterlimit="10"/><path d="m808.18 700.34-65.81 130.17v.27h92.38l-26.19-129.69z" fill="#cae3ff"/><path d="m873.99 830.51-65.43-129.42 20.44 129.69h44.99z" fill="#a0cff9"/><path d="m808.18 700.34 65.81 130.17v.27h-131.62v-.27" fill="none" stroke="#231f20" stroke-miterlimit="10"/></svg>