<svg xmlns="http://www.w3.org/2000/svg" xmlns:xlink="http://www.w3.org/1999/xlink" width="800" zoomAndPan="magnify" viewBox="0 0 600 202.499994" height="270" preserveAspectRatio="xMidYMid meet" version="1.0"><defs><clipPath id="93a7e6e76c"><path d="M 0.738281 0 L 599.261719 0 L 599.261719 202 L 0.738281 202 Z M 0.738281 0 " clip-rule="nonzero"/></clipPath><clipPath id="8caad13370"><path d="M 479 31.011719 L 593.574219 31.011719 L 593.574219 156 L 479 156 Z M 479 31.011719 " clip-rule="nonzero"/></clipPath><clipPath id="a1306de83c"><path d="M 436 177 L 448 177 L 448 182.136719 L 436 182.136719 Z M 436 177 " clip-rule="nonzero"/></clipPath><clipPath id="18eab42422"><path d="M 407 175 L 420 175 L 420 182.136719 L 407 182.136719 Z M 407 175 " clip-rule="nonzero"/></clipPath><clipPath id="cab03a6547"><path d="M 369.875 181 L 482 181 L 482 182.136719 L 369.875 182.136719 Z M 369.875 181 " clip-rule="nonzero"/></clipPath></defs><g clip-path="url(#93a7e6e76c)"><path fill="#ffffff" d="M 0.738281 0 L 599.261719 0 L 599.261719 202 L 0.738281 202 Z M 0.738281 0 " fill-opacity="1" fill-rule="nonzero"/><path fill="#f5f5fe" d="M 0.738281 0 L 599.261719 0 L 599.261719 202 L 0.738281 202 Z M 0.738281 0 " fill-opacity="1" fill-rule="nonzero"/></g><g clip-path="url(#8caad13370)"><path fill="#3f3d56" d="M 592.113281 155.824219 L 481.445312 155.824219 C 481.25 155.824219 481.0625 155.785156 480.886719 155.710938 C 480.707031 155.636719 480.546875 155.53125 480.410156 155.394531 C 480.273438 155.257812 480.167969 155.101562 480.09375 154.921875 C 480.019531 154.742188 479.984375 154.558594 479.984375 154.363281 L 479.984375 32.480469 C 479.984375 32.289062 480.019531 32.101562 480.09375 31.921875 C 480.167969 31.742188 480.273438 31.585938 480.410156 31.449219 C 480.546875 31.3125 480.707031 31.207031 480.886719 31.132812 C 481.0625 31.058594 481.25 31.019531 481.445312 31.019531 L 592.113281 31.019531 C 592.308594 31.019531 592.496094 31.058594 592.671875 31.132812 C 592.851562 31.207031 593.007812 31.3125 593.144531 31.449219 C 593.285156 31.585938 593.390625 31.742188 593.464844 31.921875 C 593.535156 32.101562 593.574219 32.289062 593.574219 32.480469 L 593.574219 154.363281 C 593.574219 154.558594 593.535156 154.742188 593.464844 154.921875 C 593.390625 155.101562 593.285156 155.257812 593.144531 155.394531 C 593.007812 155.53125 592.851562 155.636719 592.671875 155.710938 C 592.496094 155.785156 592.308594 155.824219 592.113281 155.824219 Z M 481.445312 31.605469 C 481.203125 31.605469 480.996094 31.691406 480.824219 31.863281 C 480.652344 32.03125 480.566406 32.238281 480.566406 32.480469 L 480.566406 154.363281 C 480.566406 154.605469 480.652344 154.8125 480.824219 154.984375 C 480.996094 155.152344 481.203125 155.238281 481.445312 155.238281 L 592.113281 155.238281 C 592.355469 155.238281 592.5625 155.152344 592.734375 154.984375 C 592.90625 154.8125 592.988281 154.605469 592.992188 154.363281 L 592.992188 32.480469 C 592.988281 32.238281 592.90625 32.03125 592.734375 31.863281 C 592.5625 31.691406 592.355469 31.605469 592.113281 31.605469 Z M 481.445312 31.605469 " fill-opacity="1" fill-rule="nonzero"/></g><path fill="#f2f2f2" d="M 529.1875 77.492188 L 501.738281 77.492188 C 501.542969 77.492188 501.359375 77.457031 501.179688 77.382812 C 501 77.308594 500.84375 77.203125 500.707031 77.0625 C 500.570312 76.925781 500.464844 76.769531 500.390625 76.589844 C 500.316406 76.410156 500.277344 76.226562 500.277344 76.03125 L 500.277344 48.558594 C 500.277344 48.363281 500.316406 48.175781 500.390625 47.996094 C 500.464844 47.820312 500.570312 47.660156 500.707031 47.523438 C 500.84375 47.386719 501 47.28125 501.179688 47.207031 C 501.359375 47.132812 501.542969 47.09375 501.738281 47.09375 L 529.1875 47.09375 C 529.378906 47.09375 529.566406 47.132812 529.746094 47.207031 C 529.925781 47.28125 530.082031 47.386719 530.21875 47.523438 C 530.355469 47.660156 530.460938 47.820312 530.535156 47.996094 C 530.609375 48.175781 530.648438 48.363281 530.648438 48.558594 L 530.648438 76.03125 C 530.648438 76.226562 530.609375 76.410156 530.535156 76.589844 C 530.460938 76.769531 530.355469 76.925781 530.21875 77.0625 C 530.082031 77.203125 529.925781 77.308594 529.746094 77.382812 C 529.566406 77.457031 529.378906 77.492188 529.1875 77.492188 Z M 501.738281 47.679688 C 501.496094 47.679688 501.289062 47.765625 501.117188 47.9375 C 500.949219 48.109375 500.863281 48.316406 500.863281 48.558594 L 500.863281 76.03125 C 500.863281 76.273438 500.949219 76.480469 501.117188 76.652344 C 501.289062 76.824219 501.496094 76.90625 501.738281 76.910156 L 529.1875 76.910156 C 529.429688 76.90625 529.636719 76.824219 529.804688 76.652344 C 529.976562 76.480469 530.0625 76.273438 530.0625 76.03125 L 530.0625 48.558594 C 530.0625 48.316406 529.976562 48.109375 529.804688 47.9375 C 529.636719 47.765625 529.429688 47.679688 529.1875 47.679688 Z M 501.738281 47.679688 " fill-opacity="1" fill-rule="nonzero"/><path fill="#6c63ff" d="M 521.300781 80.855469 L 493.855469 80.855469 C 493.679688 80.855469 493.511719 80.820312 493.351562 80.753906 C 493.191406 80.6875 493.046875 80.589844 492.925781 80.46875 C 492.800781 80.34375 492.707031 80.203125 492.640625 80.042969 C 492.574219 79.878906 492.539062 79.714844 492.539062 79.539062 L 492.539062 52.0625 C 492.539062 51.890625 492.574219 51.722656 492.640625 51.5625 C 492.707031 51.398438 492.800781 51.257812 492.925781 51.132812 C 493.046875 51.011719 493.191406 50.917969 493.351562 50.847656 C 493.511719 50.78125 493.679688 50.75 493.855469 50.75 L 521.300781 50.75 C 521.476562 50.75 521.644531 50.78125 521.804688 50.847656 C 521.964844 50.917969 522.109375 51.011719 522.230469 51.132812 C 522.355469 51.257812 522.449219 51.398438 522.515625 51.5625 C 522.582031 51.722656 522.617188 51.890625 522.617188 52.0625 L 522.617188 79.539062 C 522.617188 79.714844 522.582031 79.878906 522.515625 80.042969 C 522.449219 80.203125 522.355469 80.34375 522.230469 80.46875 C 522.109375 80.589844 521.964844 80.6875 521.804688 80.753906 C 521.644531 80.820312 521.476562 80.855469 521.300781 80.855469 Z M 521.300781 80.855469 " fill-opacity="1" fill-rule="nonzero"/><path fill="#cccccc" d="M 579.703125 94.300781 L 493.855469 94.300781 C 493.679688 94.300781 493.511719 94.265625 493.351562 94.199219 C 493.191406 94.132812 493.046875 94.035156 492.925781 93.914062 C 492.800781 93.789062 492.707031 93.648438 492.640625 93.488281 C 492.574219 93.324219 492.539062 93.15625 492.539062 92.984375 C 492.539062 92.808594 492.574219 92.640625 492.640625 92.480469 C 492.707031 92.320312 492.800781 92.175781 492.925781 92.054688 C 493.046875 91.929688 493.191406 91.835938 493.351562 91.769531 C 493.511719 91.703125 493.679688 91.667969 493.855469 91.667969 L 579.703125 91.667969 C 579.878906 91.667969 580.046875 91.703125 580.207031 91.769531 C 580.367188 91.835938 580.511719 91.929688 580.632812 92.054688 C 580.757812 92.175781 580.851562 92.320312 580.917969 92.480469 C 580.984375 92.640625 581.019531 92.808594 581.019531 92.984375 C 581.019531 93.15625 580.984375 93.324219 580.917969 93.488281 C 580.851562 93.648438 580.757812 93.789062 580.632812 93.914062 C 580.511719 94.035156 580.367188 94.132812 580.207031 94.199219 C 580.046875 94.265625 579.878906 94.300781 579.703125 94.300781 Z M 579.703125 94.300781 " fill-opacity="1" fill-rule="nonzero"/><path fill="#cccccc" d="M 558.972656 103.359375 L 493.855469 103.359375 C 493.679688 103.359375 493.511719 103.328125 493.351562 103.257812 C 493.191406 103.191406 493.046875 103.097656 492.925781 102.972656 C 492.800781 102.851562 492.707031 102.707031 492.640625 102.546875 C 492.574219 102.386719 492.539062 102.21875 492.539062 102.042969 C 492.539062 101.871094 492.574219 101.703125 492.640625 101.542969 C 492.707031 101.378906 492.800781 101.238281 492.925781 101.113281 C 493.046875 100.992188 493.191406 100.894531 493.351562 100.828125 C 493.511719 100.761719 493.679688 100.730469 493.855469 100.730469 L 558.972656 100.730469 C 559.144531 100.730469 559.3125 100.761719 559.472656 100.828125 C 559.636719 100.894531 559.777344 100.992188 559.902344 101.113281 C 560.023438 101.238281 560.117188 101.378906 560.183594 101.542969 C 560.253906 101.703125 560.285156 101.871094 560.285156 102.042969 C 560.285156 102.21875 560.253906 102.386719 560.183594 102.546875 C 560.117188 102.707031 560.023438 102.851562 559.902344 102.972656 C 559.777344 103.097656 559.636719 103.191406 559.472656 103.257812 C 559.3125 103.328125 559.144531 103.359375 558.972656 103.359375 Z M 558.972656 103.359375 " fill-opacity="1" fill-rule="nonzero"/><path fill="#cccccc" d="M 579.410156 60.980469 L 541.449219 60.980469 C 541.277344 60.980469 541.109375 60.945312 540.949219 60.878906 C 540.789062 60.8125 540.644531 60.71875 540.523438 60.59375 C 540.398438 60.46875 540.304688 60.328125 540.238281 60.167969 C 540.171875 60.003906 540.136719 59.839844 540.136719 59.664062 C 540.136719 59.488281 540.171875 59.320312 540.238281 59.160156 C 540.304688 59 540.398438 58.855469 540.523438 58.734375 C 540.644531 58.609375 540.789062 58.515625 540.949219 58.449219 C 541.109375 58.382812 541.277344 58.347656 541.449219 58.347656 L 579.410156 58.347656 C 579.585938 58.347656 579.753906 58.382812 579.914062 58.449219 C 580.074219 58.515625 580.21875 58.609375 580.339844 58.734375 C 580.464844 58.855469 580.558594 59 580.625 59.160156 C 580.691406 59.320312 580.726562 59.488281 580.726562 59.664062 C 580.726562 59.839844 580.691406 60.003906 580.625 60.167969 C 580.558594 60.328125 580.464844 60.46875 580.339844 60.59375 C 580.21875 60.71875 580.074219 60.8125 579.914062 60.878906 C 579.753906 60.945312 579.585938 60.980469 579.410156 60.980469 Z M 579.410156 60.980469 " fill-opacity="1" fill-rule="nonzero"/><path fill="#cccccc" d="M 569.9375 70.039062 L 541.449219 70.039062 C 541.277344 70.039062 541.109375 70.007812 540.949219 69.941406 C 540.789062 69.871094 540.644531 69.777344 540.523438 69.65625 C 540.398438 69.53125 540.304688 69.390625 540.238281 69.226562 C 540.171875 69.066406 540.136719 68.898438 540.136719 68.722656 C 540.136719 68.550781 540.171875 68.382812 540.238281 68.222656 C 540.304688 68.058594 540.398438 67.917969 540.523438 67.792969 C 540.644531 67.671875 540.789062 67.574219 540.949219 67.507812 C 541.109375 67.441406 541.277344 67.410156 541.449219 67.410156 L 569.9375 67.410156 C 570.113281 67.410156 570.28125 67.441406 570.441406 67.507812 C 570.601562 67.574219 570.746094 67.671875 570.867188 67.792969 C 570.992188 67.917969 571.085938 68.058594 571.152344 68.222656 C 571.21875 68.382812 571.253906 68.550781 571.253906 68.722656 C 571.253906 68.898438 571.21875 69.066406 571.152344 69.226562 C 571.085938 69.390625 570.992188 69.53125 570.867188 69.65625 C 570.746094 69.777344 570.601562 69.871094 570.441406 69.941406 C 570.28125 70.007812 570.113281 70.039062 569.9375 70.039062 Z M 569.9375 70.039062 " fill-opacity="1" fill-rule="nonzero"/><path fill="#cccccc" d="M 579.703125 112.421875 L 493.855469 112.421875 C 493.679688 112.421875 493.511719 112.386719 493.351562 112.320312 C 493.191406 112.253906 493.046875 112.160156 492.925781 112.035156 C 492.800781 111.910156 492.707031 111.769531 492.640625 111.609375 C 492.574219 111.449219 492.539062 111.28125 492.539062 111.105469 C 492.539062 110.929688 492.574219 110.761719 492.640625 110.601562 C 492.707031 110.441406 492.800781 110.296875 492.925781 110.175781 C 493.046875 110.050781 493.191406 109.957031 493.351562 109.890625 C 493.511719 109.824219 493.679688 109.789062 493.855469 109.789062 L 579.703125 109.789062 C 579.878906 109.789062 580.046875 109.824219 580.207031 109.890625 C 580.367188 109.957031 580.511719 110.050781 580.632812 110.175781 C 580.757812 110.296875 580.851562 110.441406 580.917969 110.601562 C 580.984375 110.761719 581.019531 110.929688 581.019531 111.105469 C 581.019531 111.28125 580.984375 111.449219 580.917969 111.609375 C 580.851562 111.769531 580.757812 111.910156 580.632812 112.035156 C 580.511719 112.160156 580.367188 112.253906 580.207031 112.320312 C 580.046875 112.386719 579.878906 112.421875 579.703125 112.421875 Z M 579.703125 112.421875 " fill-opacity="1" fill-rule="nonzero"/><path fill="#cccccc" d="M 558.972656 121.480469 L 493.855469 121.480469 C 493.679688 121.480469 493.511719 121.449219 493.351562 121.382812 C 493.191406 121.3125 493.046875 121.21875 492.925781 121.097656 C 492.800781 120.972656 492.707031 120.832031 492.640625 120.667969 C 492.574219 120.507812 492.539062 120.339844 492.539062 120.164062 C 492.539062 119.992188 492.574219 119.824219 492.640625 119.664062 C 492.707031 119.5 492.800781 119.359375 492.925781 119.234375 C 493.046875 119.113281 493.191406 119.015625 493.351562 118.949219 C 493.511719 118.882812 493.679688 118.851562 493.855469 118.851562 L 558.972656 118.851562 C 559.144531 118.851562 559.3125 118.882812 559.472656 118.949219 C 559.636719 119.015625 559.777344 119.113281 559.902344 119.234375 C 560.023438 119.359375 560.117188 119.5 560.183594 119.664062 C 560.253906 119.824219 560.285156 119.992188 560.285156 120.164062 C 560.285156 120.339844 560.253906 120.507812 560.183594 120.667969 C 560.117188 120.832031 560.023438 120.972656 559.902344 121.097656 C 559.777344 121.21875 559.636719 121.3125 559.472656 121.382812 C 559.3125 121.449219 559.144531 121.480469 558.972656 121.480469 Z M 558.972656 121.480469 " fill-opacity="1" fill-rule="nonzero"/><path fill="#cccccc" d="M 579.703125 130.542969 L 493.855469 130.542969 C 493.679688 130.542969 493.511719 130.507812 493.351562 130.441406 C 493.191406 130.375 493.046875 130.28125 492.925781 130.15625 C 492.800781 130.035156 492.707031 129.890625 492.640625 129.730469 C 492.574219 129.570312 492.539062 129.402344 492.539062 129.226562 C 492.539062 129.050781 492.574219 128.882812 492.640625 128.722656 C 492.707031 128.5625 492.800781 128.421875 492.925781 128.296875 C 493.046875 128.171875 493.191406 128.078125 493.351562 128.011719 C 493.511719 127.945312 493.679688 127.910156 493.855469 127.910156 L 579.703125 127.910156 C 579.878906 127.910156 580.046875 127.945312 580.207031 128.011719 C 580.367188 128.078125 580.511719 128.171875 580.632812 128.296875 C 580.757812 128.421875 580.851562 128.5625 580.917969 128.722656 C 580.984375 128.882812 581.019531 129.050781 581.019531 129.226562 C 581.019531 129.402344 580.984375 129.570312 580.917969 129.730469 C 580.851562 129.890625 580.757812 130.035156 580.632812 130.15625 C 580.511719 130.28125 580.367188 130.375 580.207031 130.441406 C 580.046875 130.507812 579.878906 130.542969 579.703125 130.542969 Z M 579.703125 130.542969 " fill-opacity="1" fill-rule="nonzero"/><path fill="#cccccc" d="M 579.703125 139.601562 L 493.855469 139.601562 C 493.679688 139.601562 493.511719 139.570312 493.351562 139.503906 C 493.191406 139.4375 493.046875 139.339844 492.925781 139.21875 C 492.800781 139.09375 492.707031 138.953125 492.640625 138.789062 C 492.574219 138.628906 492.539062 138.460938 492.539062 138.289062 C 492.539062 138.113281 492.574219 137.945312 492.640625 137.785156 C 492.707031 137.621094 492.800781 137.480469 492.925781 137.359375 C 493.046875 137.234375 493.191406 137.140625 493.351562 137.074219 C 493.511719 137.003906 493.679688 136.972656 493.855469 136.972656 L 579.703125 136.972656 C 579.878906 136.972656 580.046875 137.003906 580.207031 137.074219 C 580.367188 137.140625 580.511719 137.234375 580.632812 137.359375 C 580.757812 137.480469 580.851562 137.621094 580.917969 137.785156 C 580.984375 137.945312 581.019531 138.113281 581.019531 138.289062 C 581.019531 138.460938 580.984375 138.628906 580.917969 138.789062 C 580.851562 138.953125 580.757812 139.09375 580.632812 139.21875 C 580.511719 139.339844 580.367188 139.4375 580.207031 139.503906 C 580.046875 139.570312 579.878906 139.601562 579.703125 139.601562 Z M 579.703125 139.601562 " fill-opacity="1" fill-rule="nonzero"/><path fill="#ffffff" d="M 510.476562 144.515625 L 447.695312 144.515625 C 447.503906 144.515625 447.316406 144.480469 447.136719 144.40625 C 446.957031 144.332031 446.800781 144.226562 446.664062 144.085938 C 446.527344 143.949219 446.421875 143.792969 446.347656 143.613281 C 446.273438 143.433594 446.234375 143.25 446.234375 143.054688 L 446.234375 104.179688 C 446.234375 103.988281 446.273438 103.800781 446.347656 103.621094 C 446.421875 103.445312 446.527344 103.285156 446.664062 103.148438 C 446.800781 103.011719 446.957031 102.90625 447.136719 102.832031 C 447.316406 102.757812 447.503906 102.71875 447.695312 102.71875 L 510.476562 102.71875 C 510.671875 102.71875 510.855469 102.757812 511.035156 102.832031 C 511.214844 102.90625 511.371094 103.011719 511.507812 103.148438 C 511.644531 103.285156 511.75 103.445312 511.824219 103.621094 C 511.898438 103.800781 511.9375 103.988281 511.9375 104.179688 L 511.9375 143.054688 C 511.9375 143.25 511.898438 143.433594 511.824219 143.613281 C 511.75 143.792969 511.644531 143.949219 511.507812 144.085938 C 511.371094 144.226562 511.214844 144.332031 511.035156 144.40625 C 510.855469 144.480469 510.671875 144.515625 510.476562 144.515625 Z M 510.476562 144.515625 " fill-opacity="1" fill-rule="nonzero"/><path fill="#3f3d56" d="M 510.476562 144.515625 L 447.695312 144.515625 C 447.503906 144.515625 447.316406 144.480469 447.136719 144.40625 C 446.957031 144.332031 446.800781 144.226562 446.664062 144.085938 C 446.527344 143.949219 446.421875 143.792969 446.347656 143.613281 C 446.273438 143.433594 446.234375 143.25 446.234375 143.054688 L 446.234375 104.179688 C 446.234375 103.988281 446.273438 103.800781 446.347656 103.621094 C 446.421875 103.445312 446.527344 103.285156 446.664062 103.148438 C 446.800781 103.011719 446.957031 102.90625 447.136719 102.832031 C 447.316406 102.757812 447.503906 102.71875 447.695312 102.71875 L 510.476562 102.71875 C 510.671875 102.71875 510.855469 102.757812 511.035156 102.832031 C 511.214844 102.90625 511.371094 103.011719 511.507812 103.148438 C 511.644531 103.285156 511.75 103.445312 511.824219 103.621094 C 511.898438 103.800781 511.9375 103.988281 511.9375 104.179688 L 511.9375 143.054688 C 511.9375 143.25 511.898438 143.433594 511.824219 143.613281 C 511.75 143.792969 511.644531 143.949219 511.507812 144.085938 C 511.371094 144.226562 511.214844 144.332031 511.035156 144.40625 C 510.855469 144.480469 510.671875 144.515625 510.476562 144.515625 Z M 447.695312 103.304688 C 447.453125 103.304688 447.246094 103.390625 447.078125 103.5625 C 446.90625 103.734375 446.820312 103.9375 446.820312 104.179688 L 446.820312 143.054688 C 446.820312 143.296875 446.90625 143.503906 447.078125 143.675781 C 447.246094 143.847656 447.453125 143.929688 447.695312 143.933594 L 510.476562 143.933594 C 510.71875 143.929688 510.925781 143.847656 511.097656 143.675781 C 511.269531 143.503906 511.351562 143.296875 511.355469 143.054688 L 511.355469 104.179688 C 511.351562 103.9375 511.269531 103.734375 511.097656 103.5625 C 510.925781 103.390625 510.71875 103.304688 510.476562 103.304688 Z M 447.695312 103.304688 " fill-opacity="1" fill-rule="nonzero"/><path fill="#cccccc" d="M 498.066406 120.402344 L 460.105469 120.402344 C 459.933594 120.402344 459.765625 120.371094 459.601562 120.304688 C 459.441406 120.234375 459.300781 120.140625 459.175781 120.019531 C 459.054688 119.894531 458.957031 119.753906 458.890625 119.589844 C 458.824219 119.429688 458.792969 119.261719 458.792969 119.085938 C 458.792969 118.914062 458.824219 118.746094 458.890625 118.585938 C 458.957031 118.421875 459.054688 118.28125 459.175781 118.15625 C 459.300781 118.035156 459.441406 117.9375 459.601562 117.871094 C 459.765625 117.804688 459.933594 117.773438 460.105469 117.773438 L 498.066406 117.773438 C 498.242188 117.773438 498.410156 117.804688 498.570312 117.871094 C 498.730469 117.9375 498.875 118.035156 498.996094 118.15625 C 499.121094 118.28125 499.214844 118.421875 499.28125 118.585938 C 499.347656 118.746094 499.382812 118.914062 499.382812 119.085938 C 499.382812 119.261719 499.347656 119.429688 499.28125 119.589844 C 499.214844 119.753906 499.121094 119.894531 498.996094 120.019531 C 498.875 120.140625 498.730469 120.234375 498.570312 120.304688 C 498.410156 120.371094 498.242188 120.402344 498.066406 120.402344 Z M 498.066406 120.402344 " fill-opacity="1" fill-rule="nonzero"/><path fill="#cccccc" d="M 498.066406 129.464844 L 460.105469 129.464844 C 459.933594 129.464844 459.765625 129.429688 459.601562 129.363281 C 459.441406 129.296875 459.300781 129.203125 459.175781 129.078125 C 459.054688 128.957031 458.957031 128.8125 458.890625 128.652344 C 458.824219 128.492188 458.792969 128.324219 458.792969 128.148438 C 458.792969 127.972656 458.824219 127.804688 458.890625 127.644531 C 458.957031 127.484375 459.054688 127.339844 459.175781 127.21875 C 459.300781 127.09375 459.441406 127 459.601562 126.933594 C 459.765625 126.867188 459.933594 126.832031 460.105469 126.832031 L 498.066406 126.832031 C 498.242188 126.832031 498.410156 126.867188 498.570312 126.933594 C 498.730469 127 498.875 127.09375 498.996094 127.21875 C 499.121094 127.339844 499.214844 127.484375 499.28125 127.644531 C 499.347656 127.804688 499.382812 127.972656 499.382812 128.148438 C 499.382812 128.324219 499.347656 128.492188 499.28125 128.652344 C 499.214844 128.8125 499.121094 128.957031 498.996094 129.078125 C 498.875 129.203125 498.730469 129.296875 498.570312 129.363281 C 498.410156 129.429688 498.242188 129.464844 498.066406 129.464844 Z M 498.066406 129.464844 " fill-opacity="1" fill-rule="nonzero"/><path fill="#a0616a" d="M 437.136719 178.589844 L 440.714844 178.589844 L 442.417969 164.769531 L 437.136719 164.769531 Z M 437.136719 178.589844 " fill-opacity="1" fill-rule="nonzero"/><g clip-path="url(#a1306de83c)"><path fill="#2f2e41" d="M 436.222656 177.421875 L 443.273438 177.421875 C 443.570312 177.421875 443.859375 177.449219 444.148438 177.507812 C 444.441406 177.566406 444.71875 177.648438 444.992188 177.761719 C 445.265625 177.875 445.523438 178.015625 445.769531 178.179688 C 446.015625 178.34375 446.242188 178.527344 446.449219 178.738281 C 446.660156 178.945312 446.84375 179.171875 447.007812 179.417969 C 447.171875 179.664062 447.3125 179.921875 447.425781 180.195312 C 447.539062 180.46875 447.621094 180.75 447.679688 181.039062 C 447.738281 181.328125 447.765625 181.621094 447.765625 181.917969 L 447.765625 182.0625 L 436.222656 182.0625 Z M 436.222656 177.421875 " fill-opacity="1" fill-rule="nonzero"/></g><path fill="#a0616a" d="M 409.261719 177.039062 L 412.800781 177.574219 L 416.550781 164.164062 L 411.910156 163.375 Z M 409.261719 177.039062 " fill-opacity="1" fill-rule="nonzero"/><g clip-path="url(#18eab42422)"><path fill="#2f2e41" d="M 408.535156 175.746094 L 415.503906 176.800781 C 415.796875 176.84375 416.082031 176.917969 416.359375 177.015625 C 416.636719 177.117188 416.902344 177.242188 417.152344 177.398438 C 417.40625 177.550781 417.640625 177.726562 417.859375 177.921875 C 418.078125 178.121094 418.273438 178.339844 418.449219 178.578125 C 418.625 178.816406 418.773438 179.070312 418.898438 179.335938 C 419.027344 179.601562 419.125 179.878906 419.195312 180.167969 C 419.265625 180.453125 419.308594 180.746094 419.320312 181.039062 C 419.335938 181.335938 419.320312 181.628906 419.277344 181.917969 L 419.253906 182.0625 L 407.839844 180.335938 Z M 408.535156 175.746094 " fill-opacity="1" fill-rule="nonzero"/></g><path fill="#a0616a" d="M 420.300781 110.09375 L 424.273438 111.136719 L 424.011719 117.585938 L 423.976562 129.332031 C 424.238281 129.515625 424.457031 129.738281 424.628906 130.011719 C 424.796875 130.28125 424.910156 130.574219 424.960938 130.886719 C 425.011719 131.203125 425 131.515625 424.925781 131.828125 C 424.847656 132.136719 424.714844 132.421875 424.523438 132.675781 C 424.332031 132.933594 424.097656 133.140625 423.824219 133.300781 C 423.546875 133.464844 423.25 133.5625 422.933594 133.601562 C 422.617188 133.644531 422.304688 133.621094 421.996094 133.53125 C 421.691406 133.445312 421.410156 133.300781 421.164062 133.101562 C 420.914062 132.898438 420.714844 132.65625 420.566406 132.375 C 420.414062 132.09375 420.324219 131.792969 420.296875 131.476562 C 420.269531 131.15625 420.304688 130.84375 420.402344 130.542969 C 420.5 130.238281 420.65625 129.964844 420.867188 129.722656 L 419.644531 117.9375 Z M 420.300781 110.09375 " fill-opacity="1" fill-rule="nonzero"/><path fill="#6c63ff" d="M 419.609375 102.707031 C 419.628906 102.070312 419.824219 101.488281 420.1875 100.96875 C 420.550781 100.445312 421.023438 100.0625 421.613281 99.816406 C 422.164062 99.570312 422.738281 99.496094 423.335938 99.59375 C 423.929688 99.6875 424.453125 99.9375 424.898438 100.347656 C 425.566406 100.945312 425.886719 101.691406 425.863281 102.585938 C 425.871094 106.363281 425.019531 111.871094 425.011719 111.925781 L 424.996094 112.015625 L 419.1875 113.972656 Z M 419.609375 102.707031 " fill-opacity="1" fill-rule="nonzero"/><path fill="#2f2e41" d="M 429.996094 113.433594 L 438.882812 111.128906 L 442.992188 124.976562 L 443.136719 176.566406 L 436.339844 176.523438 L 433.5 134.769531 L 415.394531 173.351562 L 408.097656 172.472656 L 424.011719 131.117188 C 424.011719 131.117188 423.132812 123.808594 425.910156 120.15625 L 425.324219 116.355469 Z M 429.996094 113.433594 " fill-opacity="1" fill-rule="nonzero"/><path fill="#6c63ff" d="M 424.003906 116.878906 C 423.742188 116.558594 423.644531 116.191406 423.714844 115.78125 L 419.660156 103.609375 C 419.46875 103.027344 419.449219 102.441406 419.601562 101.847656 C 419.757812 101.257812 420.0625 100.753906 420.511719 100.339844 L 422.273438 98.742188 L 423.464844 93.964844 L 430.320312 95.644531 L 429.753906 97.902344 L 432.855469 97.339844 L 439.390625 111.90625 L 425.734375 117.367188 L 425.0625 117.378906 C 424.628906 117.378906 424.277344 117.214844 424.003906 116.878906 Z M 424.003906 116.878906 " fill-opacity="1" fill-rule="nonzero"/><path fill="#a0616a" d="M 433.515625 106.601562 L 437.433594 105.355469 L 440.65625 110.949219 L 446.898438 120.890625 C 447.21875 120.90625 447.523438 120.980469 447.808594 121.117188 C 448.097656 121.253906 448.347656 121.441406 448.5625 121.679688 C 448.773438 121.921875 448.929688 122.191406 449.03125 122.496094 C 449.132812 122.796875 449.171875 123.109375 449.144531 123.425781 C 449.121094 123.746094 449.035156 124.046875 448.886719 124.332031 C 448.742188 124.613281 448.542969 124.855469 448.296875 125.058594 C 448.050781 125.265625 447.773438 125.410156 447.46875 125.5 C 447.160156 125.589844 446.851562 125.617188 446.53125 125.582031 C 446.214844 125.546875 445.917969 125.449219 445.640625 125.289062 C 445.363281 125.132812 445.125 124.925781 444.933594 124.671875 C 444.738281 124.417969 444.601562 124.136719 444.523438 123.828125 C 444.445312 123.515625 444.429688 123.203125 444.476562 122.886719 L 437.152344 113.578125 Z M 433.515625 106.601562 " fill-opacity="1" fill-rule="nonzero"/><path fill="#6c63ff" d="M 428.988281 100.726562 C 428.664062 100.175781 428.519531 99.582031 428.546875 98.949219 C 428.574219 98.3125 428.773438 97.734375 429.140625 97.214844 C 429.472656 96.710938 429.917969 96.339844 430.472656 96.101562 C 431.027344 95.863281 431.601562 95.796875 432.195312 95.902344 C 433.082031 96.050781 433.75 96.507812 434.207031 97.277344 C 436.234375 100.46875 438.457031 105.578125 438.476562 105.628906 L 438.511719 105.710938 L 434.648438 110.472656 Z M 428.988281 100.726562 " fill-opacity="1" fill-rule="nonzero"/><path fill="#a0616a" d="M 433.980469 87.628906 C 433.980469 87.984375 433.949219 88.339844 433.878906 88.691406 C 433.808594 89.042969 433.703125 89.382812 433.566406 89.714844 C 433.429688 90.042969 433.261719 90.359375 433.066406 90.65625 C 432.867188 90.953125 432.640625 91.226562 432.386719 91.480469 C 432.132812 91.734375 431.859375 91.960938 431.5625 92.160156 C 431.265625 92.359375 430.949219 92.527344 430.621094 92.664062 C 430.289062 92.800781 429.949219 92.902344 429.597656 92.972656 C 429.25 93.042969 428.894531 93.078125 428.535156 93.078125 C 428.179688 93.078125 427.824219 93.042969 427.472656 92.972656 C 427.125 92.902344 426.78125 92.800781 426.453125 92.664062 C 426.121094 92.527344 425.808594 92.359375 425.511719 92.160156 C 425.214844 91.960938 424.9375 91.734375 424.6875 91.480469 C 424.433594 91.226562 424.207031 90.953125 424.007812 90.65625 C 423.808594 90.359375 423.640625 90.042969 423.503906 89.714844 C 423.367188 89.382812 423.265625 89.042969 423.195312 88.691406 C 423.125 88.339844 423.089844 87.984375 423.089844 87.628906 C 423.089844 87.269531 423.125 86.914062 423.195312 86.5625 C 423.265625 86.210938 423.367188 85.871094 423.503906 85.542969 C 423.640625 85.210938 423.808594 84.894531 424.007812 84.597656 C 424.207031 84.300781 424.433594 84.027344 424.6875 83.773438 C 424.9375 83.519531 425.214844 83.292969 425.511719 83.09375 C 425.808594 82.894531 426.121094 82.726562 426.453125 82.589844 C 426.78125 82.453125 427.125 82.351562 427.472656 82.28125 C 427.824219 82.210938 428.179688 82.175781 428.535156 82.175781 C 428.894531 82.175781 429.25 82.210938 429.597656 82.28125 C 429.949219 82.351562 430.289062 82.453125 430.621094 82.589844 C 430.949219 82.726562 431.265625 82.894531 431.5625 83.09375 C 431.859375 83.292969 432.132812 83.519531 432.386719 83.773438 C 432.640625 84.027344 432.867188 84.300781 433.066406 84.597656 C 433.261719 84.894531 433.429688 85.210938 433.566406 85.542969 C 433.703125 85.871094 433.808594 86.210938 433.878906 86.5625 C 433.949219 86.914062 433.980469 87.269531 433.980469 87.628906 Z M 433.980469 87.628906 " fill-opacity="1" fill-rule="nonzero"/><path fill="#2f2e41" d="M 424.160156 80.078125 C 424.160156 80.421875 424.125 80.761719 424.058594 81.101562 C 423.992188 81.441406 423.890625 81.769531 423.757812 82.085938 C 423.628906 82.40625 423.464844 82.707031 423.273438 82.996094 C 423.082031 83.28125 422.867188 83.546875 422.621094 83.789062 C 422.378906 84.035156 422.113281 84.25 421.828125 84.441406 C 421.542969 84.632812 421.238281 84.796875 420.921875 84.929688 C 420.601562 85.058594 420.273438 85.160156 419.9375 85.226562 C 419.597656 85.292969 419.257812 85.328125 418.914062 85.328125 C 418.570312 85.328125 418.226562 85.292969 417.890625 85.226562 C 417.550781 85.160156 417.222656 85.058594 416.90625 84.929688 C 416.585938 84.796875 416.285156 84.632812 416 84.441406 C 415.710938 84.25 415.449219 84.035156 415.203125 83.789062 C 414.960938 83.546875 414.742188 83.28125 414.550781 82.996094 C 414.359375 82.707031 414.199219 82.40625 414.066406 82.085938 C 413.933594 81.769531 413.835938 81.441406 413.769531 81.101562 C 413.699219 80.761719 413.667969 80.421875 413.667969 80.078125 C 413.667969 79.734375 413.699219 79.390625 413.769531 79.054688 C 413.835938 78.714844 413.933594 78.386719 414.066406 78.066406 C 414.199219 77.75 414.359375 77.445312 414.550781 77.160156 C 414.742188 76.875 414.960938 76.609375 415.203125 76.363281 C 415.449219 76.121094 415.710938 75.902344 416 75.710938 C 416.285156 75.519531 416.585938 75.359375 416.90625 75.226562 C 417.222656 75.09375 417.550781 74.996094 417.890625 74.929688 C 418.226562 74.859375 418.570312 74.828125 418.914062 74.828125 C 419.257812 74.828125 419.597656 74.859375 419.9375 74.929688 C 420.273438 74.996094 420.601562 75.09375 420.921875 75.226562 C 421.238281 75.359375 421.542969 75.519531 421.828125 75.710938 C 422.113281 75.902344 422.378906 76.121094 422.621094 76.363281 C 422.867188 76.609375 423.082031 76.875 423.273438 77.160156 C 423.464844 77.445312 423.628906 77.75 423.757812 78.066406 C 423.890625 78.386719 423.992188 78.714844 424.058594 79.054688 C 424.125 79.390625 424.160156 79.734375 424.160156 80.078125 Z M 424.160156 80.078125 " fill-opacity="1" fill-rule="nonzero"/><path fill="#2f2e41" d="M 414.386719 84.425781 C 414.726562 84.671875 415.089844 84.871094 415.480469 85.03125 C 415.867188 85.191406 416.269531 85.300781 416.683594 85.363281 C 417.097656 85.425781 417.511719 85.4375 417.929688 85.398438 C 418.347656 85.363281 418.753906 85.277344 419.148438 85.140625 C 419.546875 85.003906 419.921875 84.824219 420.273438 84.601562 C 420.628906 84.375 420.949219 84.113281 421.242188 83.8125 C 421.53125 83.507812 421.78125 83.175781 421.992188 82.8125 C 422.203125 82.453125 422.371094 82.070312 422.488281 81.667969 C 422.445312 82.027344 422.363281 82.378906 422.242188 82.722656 C 422.125 83.066406 421.972656 83.394531 421.789062 83.707031 C 421.601562 84.015625 421.386719 84.304688 421.140625 84.574219 C 420.894531 84.839844 420.625 85.078125 420.328125 85.289062 C 420.035156 85.5 419.71875 85.675781 419.386719 85.824219 C 419.054688 85.96875 418.710938 86.078125 418.355469 86.152344 C 418.003906 86.226562 417.644531 86.265625 417.28125 86.265625 C 416.917969 86.265625 416.558594 86.226562 416.203125 86.152344 C 415.851562 86.078125 415.507812 85.964844 415.175781 85.820312 C 414.84375 85.675781 414.53125 85.496094 414.234375 85.285156 C 413.9375 85.074219 413.667969 84.835938 413.421875 84.566406 C 413.179688 84.300781 412.960938 84.011719 412.777344 83.699219 C 412.589844 83.386719 412.441406 83.058594 412.324219 82.71875 C 412.203125 82.375 412.125 82.023438 412.078125 81.660156 C 412.035156 81.300781 412.027344 80.941406 412.054688 80.578125 C 412.085938 80.21875 412.152344 79.863281 412.257812 79.515625 C 412.136719 80.46875 412.269531 81.382812 412.648438 82.261719 C 413.03125 83.140625 413.613281 83.863281 414.386719 84.425781 Z M 414.386719 84.425781 " fill-opacity="1" fill-rule="nonzero"/><path fill="#2f2e41" d="M 435.089844 84.429688 C 434.175781 82.789062 433.824219 82.105469 432.644531 81.105469 C 431.597656 80.222656 430.3125 79.964844 429.277344 80.800781 C 428.871094 80.625 428.453125 80.496094 428.015625 80.410156 C 427.582031 80.324219 427.144531 80.285156 426.699219 80.292969 C 426.257812 80.300781 425.820312 80.355469 425.390625 80.457031 C 424.960938 80.5625 424.542969 80.707031 424.144531 80.898438 C 423.746094 81.089844 423.371094 81.320312 423.019531 81.589844 C 422.667969 81.863281 422.351562 82.167969 422.066406 82.507812 C 421.78125 82.847656 421.535156 83.214844 421.332031 83.605469 C 421.125 83.996094 420.960938 84.40625 420.84375 84.832031 C 420.722656 85.261719 420.652344 85.695312 420.625 86.136719 C 420.597656 86.582031 420.621094 87.019531 420.6875 87.457031 C 420.757812 87.898438 420.871094 88.324219 421.03125 88.734375 C 421.1875 89.148438 421.390625 89.542969 421.632812 89.914062 C 421.878906 90.28125 422.15625 90.625 422.472656 90.933594 C 422.789062 91.242188 423.132812 91.515625 423.507812 91.753906 C 423.882812 91.992188 424.277344 92.183594 424.695312 92.335938 C 425.109375 92.488281 425.539062 92.59375 425.976562 92.652344 C 426.417969 92.714844 426.855469 92.726562 427.296875 92.691406 C 427.738281 92.65625 428.171875 92.578125 428.597656 92.449219 C 429.019531 92.324219 429.425781 92.152344 429.816406 91.9375 C 430.203125 91.722656 430.5625 91.472656 430.898438 91.179688 C 431.230469 90.886719 431.53125 90.566406 431.792969 90.210938 C 432.058594 89.855469 432.28125 89.472656 432.464844 89.070312 C 432.648438 88.667969 432.789062 88.25 432.882812 87.816406 C 432.976562 87.382812 433.023438 86.945312 433.023438 86.5 C 433.019531 86.265625 433.007812 86.03125 432.980469 85.800781 C 433.878906 85.671875 434.1875 84.558594 435.089844 84.429688 Z M 435.089844 84.429688 " fill-opacity="1" fill-rule="nonzero"/><g clip-path="url(#cab03a6547)"><path fill="#cccccc" d="M 481.425781 182.128906 L 370.167969 182.128906 C 370.089844 182.128906 370.019531 182.101562 369.960938 182.042969 C 369.90625 181.988281 369.875 181.917969 369.875 181.835938 C 369.875 181.757812 369.90625 181.6875 369.960938 181.628906 C 370.019531 181.574219 370.089844 181.546875 370.167969 181.546875 L 481.425781 181.546875 C 481.503906 181.546875 481.574219 181.574219 481.628906 181.628906 C 481.6875 181.6875 481.714844 181.757812 481.714844 181.835938 C 481.714844 181.917969 481.6875 181.988281 481.628906 182.042969 C 481.574219 182.101562 481.503906 182.128906 481.425781 182.128906 Z M 481.425781 182.128906 " fill-opacity="1" fill-rule="nonzero"/></g></svg>